<svg xmlns="http://www.w3.org/2000/svg" viewBox="0 0 64 60" fill="currentColor">
    <g opacity="1" transform="matrix(1,0,0,1,18,50)">
        <path fill-opacity="1" transform="scale(1)"
              d=" M8.315999984741211,-0.9490000009536743 C8.315999984741211,-0.9490000009536743 2.7899999618530273,-2.7899999618530273 2.7899999618530273,-2.7899999618530273 C2.7899999618530273,-2.7899999618530273 0.9470000267028809,-8.314000129699707 0.9470000267028809,-8.314000129699707 C0.8119999766349792,-8.720999717712402 0.4300000071525574,-8.99899959564209 -0.0010000000474974513,-8.99899959564209 C-0.4320000112056732,-8.99899959564209 -0.8140000104904175,-8.722000122070312 -0.9490000009536743,-8.314000129699707 C-0.9490000009536743,-8.314000129699707 -2.7899999618530273,-2.7899999618530273 -2.7899999618530273,-2.7899999618530273 C-2.7899999618530273,-2.7899999618530273 -8.315999984741211,-0.9490000009536743 -8.315999984741211,-0.9490000009536743 C-8.723999977111816,-0.8130000233650208 -8.99899959564209,-0.42899999022483826 -8.99899959564209,0.0010000000474974513 C-8.99899959564209,0.4320000112056732 -8.725000381469727,0.8140000104904175 -8.315999984741211,0.949999988079071 C-8.315999984741211,0.949999988079071 -2.7899999618530273,2.7920000553131104 -2.7899999618530273,2.7920000553131104 C-2.7899999618530273,2.7920000553131104 -0.9490000009536743,8.315999984741211 -0.9490000009536743,8.315999984741211 C-0.8130000233650208,8.722000122070312 -0.4320000112056732,8.99899959564209 -0.0010000000474974513,8.99899959564209 C0.4300000071525574,8.99899959564209 0.8119999766349792,8.723999977111816 0.9470000267028809,8.315999984741211 C0.9470000267028809,8.315999984741211 2.7899999618530273,2.7899999618530273 2.7899999618530273,2.7899999618530273 C2.7899999618530273,2.7899999618530273 8.315999984741211,0.9490000009536743 8.315999984741211,0.9490000009536743 C8.725000381469727,0.8130000233650208 8.99899959564209,0.4309999942779541 8.99899959564209,0.0010000000474974513 C8.99899959564209,-0.42800000309944153 8.725000381469727,-0.8130000233650208 8.315999984741211,-0.9490000009536743z">
            <animate
                    attributeName="opacity"
                    dur="1.8s"
                    values="0.6;1;0.6"
                    repeatCount="indefinite"
                    begin="0"
            />
            <animateTransform
                    attributeName="transform"
                    type="scale"
                    dur="2s"
                    values="0.85;1;0.85"
                    repeatCount="indefinite"
                    begin="0"
            />
        </path>
    </g>

    <g opacity="1" transform="matrix(1,0,0,1,13,13)">
        <path fill-opacity="1" transform="scale(1)"
              d=" M-11.315999984741211,0.9490000009536743 C-11.315999984741211,0.9490000009536743 -3.5399999618530273,3.5409998893737793 -3.5399999618530273,3.5409998893737793 C-3.5399999618530273,3.5409998893737793 -0.9480000138282776,11.317000389099121 -0.9480000138282776,11.317000389099121 C-0.8119999766349792,11.725000381469727 -0.4309999942779541,12 0,12 C0.4309999942779541,12 0.8130000233650208,11.725000381469727 0.9480000138282776,11.315999984741211 C0.9480000138282776,11.315999984741211 3.5399999618530273,3.5399999618530273 3.5399999618530273,3.5399999618530273 C3.5399999618530273,3.5399999618530273 11.315999984741211,0.9480000138282776 11.315999984741211,0.9480000138282776 C11.725000381469727,0.8130000233650208 12,0.4309999942779541 12,0 C12,-0.4309999942779541 11.725000381469727,-0.8130000233650208 11.315999984741211,-0.9490000009536743 C11.315999984741211,-0.9490000009536743 3.5399999618530273,-3.5409998893737793 3.5399999618530273,-3.5409998893737793 C3.5399999618530273,-3.5409998893737793 0.9480000138282776,-11.317000389099121 0.9480000138282776,-11.317000389099121 C0.8130000233650208,-11.725000381469727 0.4309999942779541,-12 0,-12 C-0.4309999942779541,-12 -0.8130000233650208,-11.725000381469727 -0.9480000138282776,-11.315999984741211 C-0.9480000138282776,-11.315999984741211 -3.5399999618530273,-3.5409998893737793 -3.5399999618530273,-3.5409998893737793 C-3.5399999618530273,-3.5409998893737793 -11.315999984741211,-0.9490000009536743 -11.315999984741211,-0.9490000009536743 C-11.725000381469727,-0.8119999766349792 -12,-0.4309999942779541 -12,0 C-12,0.4309999942779541 -11.725000381469727,0.8130000233650208 -11.315999984741211,0.9490000009536743z">
            <animate
                    attributeName="opacity"
                    dur="1.8s"
                    values="0.4;1;0.4"
                    repeatCount="indefinite"
                    begin="0"
            />
            <animateTransform
                    attributeName="transform"
                    type="scale"
                    dur="3s"
                    values="0.8;1.05;0.8"
                    repeatCount="indefinite"
                    begin="0"
            />
        </path>
    </g>

    <g opacity="1" transform="matrix(1,0,0,1,42.5,30)">
        <path fill-opacity="1" transform="scale(1)"
              d=" M15.805999755859375,-0.9520000219345093 C15.805999755859375,-0.9520000219345093 4.566999912261963,-4.565000057220459 4.566999912261963,-4.565000057220459 C4.566999912261963,-4.565000057220459 0.953000009059906,-15.805999755859375 0.953000009059906,-15.805999755859375 C0.8199999928474426,-16.219999313354492 0.4350000023841858,-16.5 0,-16.5 C-0.4339999854564667,-16.5 -0.8190000057220459,-16.219999313354492 -0.9520000219345093,-15.805999755859375 C-0.9520000219345093,-15.805999755859375 -4.565000057220459,-4.565000057220459 -4.565000057220459,-4.565000057220459 C-4.565000057220459,-4.565000057220459 -15.805000305175781,-0.9520000219345093 -15.805000305175781,-0.9520000219345093 C-16.219999313354492,-0.8190000057220459 -16.5,-0.4339999854564667 -16.5,0 C-16.5,0.4350000023841858 -16.219999313354492,0.8190000057220459 -15.805999755859375,0.9520000219345093 C-15.805999755859375,0.9520000219345093 -4.565999984741211,4.565999984741211 -4.565999984741211,4.565999984741211 C-4.565999984741211,4.565999984741211 -0.953000009059906,15.805999755859375 -0.953000009059906,15.805999755859375 C-0.8190000057220459,16.219999313354492 -0.4339999854564667,16.5 0,16.5 C0.4350000023841858,16.5 0.8199999928474426,16.219999313354492 0.9520000219345093,15.805999755859375 C0.9520000219345093,15.805999755859375 4.565999984741211,4.565999984741211 4.565999984741211,4.565999984741211 C4.565999984741211,4.565999984741211 15.805000305175781,0.9520000219345093 15.805000305175781,0.9520000219345093 C16.219999313354492,0.8190000057220459 16.5,0.4350000023841858 16.5,0 C16.5,-0.4339999854564667 16.219999313354492,-0.8190000057220459 15.805999755859375,-0.9520000219345093z">
            <animate
                    attributeName="opacity"
                    dur="1.4s"
                    values="0.4;1;0.4"
                    repeatCount="indefinite"
                    begin="0"
            />
            <animateTransform
                    attributeName="transform"
                    type="scale"
                    dur="2.5s"
                    values="1;1.2;1"
                    repeatCount="indefinite"
                    begin="0"
            />
        </path>
    </g>
</svg>